<svg width="24" height="24" xmlns="http://www.w3.org/2000/svg">

 <g>
  <title>background</title>
  <rect fill="none" id="canvas_background" height="26" width="26" y="-1" x="-1"/>
 </g>
 <g>
  <title>Layer 1</title>
  <path id="svg_30" d="m7.708956,5.785881c0,0 2.272045,0 2.250856,-0.016652c0.021188,0.016652 0.504596,-2.107342 0.487945,-2.123995c0.016651,0.016652 -2.279738,0.016652 -2.29621,-0.028703" stroke-opacity="null" stroke-width="0" stroke="#000" fill="#ffffff"/>
  <path id="svg_31" d="m7.479335,6.933986c0,0 2.29621,0 2.279559,-0.016652c0.016651,0.016652 -3.456367,17.037311 -3.456367,17.037311c0,0 -2.353791,0 -2.370267,-0.016652" stroke-opacity="null" stroke-width="0" stroke="#000" fill="#ffffff"/>
  <path id="svg_33" d="m10.866245,6.933986c0,0 2.267689,0 2.250856,-0.016652c0.016833,0.016652 -1.791614,8.857062 -1.791614,8.857062c0,0 -2.29621,0 -2.312862,-0.016652" stroke-opacity="null" stroke-width="0" stroke="#000" fill="#ffffff"/>
  <path id="svg_34" d="m14.253642,6.933986c0,0 2.26769,0 2.250857,-0.016652c0.016833,0.016652 -1.791615,8.857062 -1.791615,8.857062c0,0 -2.29621,0 -2.312861,-0.016652" stroke-opacity="null" stroke-width="0" stroke="#000" fill="#ffffff"/>
  <path id="svg_35" d="m17.525255,6.991391c0,0 2.26769,0 2.250857,-0.016652c0.016833,0.016652 -1.791615,8.857062 -1.791615,8.857062c0,0 -2.29621,0 -2.312861,-0.016652" stroke-opacity="null" stroke-width="0" stroke="#000" fill="#ffffff"/>
 </g>
</svg>